PathFileType	4	(X/Y/Z)	S1_rest_fast_right.trc
DataRate	CameraRate	NumFrames	NumMarkers	Units	OrigDataRate	OrigDataStartFrame	OrigNumFrames
250.00	250.00	14	18	mm	250.00	5404	21613
Frame#	Time	c7	r_should	l_should	clavicle	r_upa	r_elb_l	r_elb_m	r_low	r_wri_l	r_wri_m	r_met	l_upa	l_elb_l	l_elb_m	l_low	l_wri_l	l_wri_m	l_met
	X1	Y1	Z1	X2	Y2	Z2	X3	Y3	Z3	X4	Y4	Z4	X5	Y5	Z5	X6	Y6	Z6	X7	Y7	Z7	X8	Y8	Z8	X9	Y9	Z9	X10	Y10	Z10	X11	Y11	Z11	X12	Y12	Z12	X13	Y13	Z13	X14	Y14	Z14	X15	Y15	Z15	X16	Y16	Z16	X17	Y17	Z17	X18	Y18	Z18
5404	21.61200	431.21393	1417.85217	130.35451	514.95325	1351.36877	291.27097	460.33371	1370.40076	-71.58607	571.75348	1305.50427	93.22860	541.32141	1139.31165	323.42566	577.27771	1043.75940	327.94946	515.46179	1020.64301	245.08423	574.30206	907.23096	304.94446	664.23267	841.77722	317.95337	638.70483	827.24646	246.87891	657.71082	759.33197	336.54141	448.06747	1158.29114	-137.30959	456.09494	1078.14380	-156.10335	395.08218	1042.77441	-82.67102	447.51477	931.66858	-165.09708	541.62372	866.56561	-122.47723	484.45850	841.71735	-162.03815	582.06812	795.06335	-143.94322
5405	21.61600	431.26013	1417.84692	130.36018	515.01721	1351.36694	291.26547	460.32138	1370.39148	-71.57652	571.71790	1305.48743	93.11439	541.44336	1139.31213	323.40482	577.40460	1043.76428	327.92288	515.57758	1020.64087	245.05710	574.44965	907.22772	304.93307	664.37299	841.78223	317.95959	638.84283	827.24127	246.87485	657.85083	759.33820	336.56482	448.04547	1158.27454	-137.27936	456.06516	1077.96619	-156.18869	396.03738	1041.91992	-83.08959	447.70816	931.66107	-164.94324	541.91229	866.71320	-122.27084	484.78424	841.76221	-161.83093	582.46313	795.25616	-143.69524
5406	21.62000	431.30310	1417.83167	130.38007	515.07739	1351.36340	291.26727	460.30627	1370.38733	-71.57030	571.76233	1305.47473	93.12074	541.56287	1139.30493	323.37128	577.52936	1043.76501	327.89267	515.69202	1020.65051	245.03632	574.59546	907.22717	304.93204	664.51038	841.78656	317.97247	638.98279	827.22693	246.87596	658.00214	759.33606	336.58350	448.01733	1158.25317	-137.25441	456.06992	1077.91284	-156.15804	396.30548	1041.69067	-83.14664	447.89545	931.64978	-164.78836	542.19189	866.85376	-122.07336	485.09995	841.79639	-161.62753	582.84235	795.44165	-143.44803
5407	21.62400	431.35025	1417.82117	130.39340	515.13440	1351.35437	291.27032	460.30231	1370.37805	-71.56289	571.82306	1305.45715	93.16011	541.67914	1139.30273	323.34509	577.64941	1043.75269	327.87411	515.80750	1020.65704	245.01518	574.73376	907.22821	304.93655	664.64282	841.79352	317.98547	639.12756	827.21716	246.87872	658.13196	759.34698	336.62082	447.98972	1158.23193	-137.22589	456.06659	1077.89148	-156.11745	396.39532	1041.62305	-83.10577	448.07489	931.63867	-164.62912	542.45746	867.00305	-121.88580	485.40491	841.84424	-161.41582	583.20105	795.62439	-143.21092
5408	21.62800	431.39584	1417.81262	130.41084	515.19104	1351.34314	291.27060	460.29318	1370.36731	-71.55623	571.79419	1305.43311	93.05850	541.78967	1139.29358	323.32812	577.76044	1043.74512	327.86505	515.92273	1020.65753	245.00079	574.86835	907.22845	304.94507	664.77209	841.80304	318.00497	639.26990	827.21448	246.88211	658.25415	759.35663	336.66333	447.95990	1158.20557	-137.19421	456.06931	1077.88550	-156.05974	396.43094	1041.59009	-83.04398	448.25052	931.62634	-164.46904	542.70795	867.15271	-121.70625	485.69714	841.89471	-161.19878	583.54272	795.81183	-142.97148
5409	21.63200	431.44446	1417.80701	130.43178	515.24890	1351.32776	291.27109	460.27982	1370.35632	-71.54997	571.80847	1305.41797	93.01508	541.89355	1139.28650	323.31934	577.86377	1043.73840	327.86511	516.03558	1020.65253	245.00914	574.99463	907.22528	304.95218	664.90143	841.81158	318.03284	639.39990	827.21051	246.89893	658.38135	759.37714	336.70312	447.92563	1158.18762	-137.16595	456.07407	1077.88257	-155.99301	396.46075	1041.56982	-82.98794	448.41855	931.61981	-164.30841	542.95032	867.29840	-121.51600	485.97580	841.93506	-160.98604	583.88464	795.99677	-142.71155
5410	21.63600	431.49542	1417.79468	130.45125	515.32098	1351.31580	291.26785	460.26868	1370.34985	-71.54605	571.83063	1305.40039	92.98271	541.99982	1139.27942	323.32254	577.95227	1043.74719	327.87900	516.13971	1020.65155	245.01372	575.11115	907.22260	304.96014	665.02673	841.82324	318.06677	639.52899	827.21106	246.92221	658.52655	759.38751	336.72903	447.89279	1158.16565	-137.14003	456.19543	1077.87781	-155.67238	396.09576	1041.92358	-82.70022	448.57910	931.61823	-164.15002	543.19501	867.44855	-121.32397	486.24850	841.97717	-160.76767	584.21173	796.17633	-142.46072
5411	21.64000	431.54996	1417.78577	130.46996	515.39880	1351.30054	291.26459	460.25604	1370.34351	-71.54046	571.89368	1305.38416	93.01060	542.08661	1139.27026	323.32852	578.03632	1043.74304	327.90488	516.26263	1020.62848	244.99507	575.21948	907.22528	304.97748	665.14886	841.83368	318.10205	639.65924	827.21191	246.94936	658.66382	759.40814	336.77377	447.86237	1158.14771	-137.11476	456.45895	1077.88306	-155.04327	395.25562	1042.73267	-82.13507	448.73355	931.62518	-164.00098	543.43903	867.60126	-121.13625	486.50970	842.02020	-160.55138	584.52728	796.35876	-142.20778
5412	21.64400	431.60217	1417.78186	130.48192	515.48132	1351.29138	291.25900	460.24203	1370.34351	-71.53585	571.97797	1305.37097	93.06826	542.16455	1139.26562	323.33850	578.12213	1043.72998	327.94202	516.37762	1020.60626	244.98743	575.31598	907.22467	305.00049	665.27155	841.83777	318.14212	639.78979	827.20337	246.97627	658.80853	759.42108	336.81665	447.83484	1158.13599	-137.08150	456.52859	1077.89038	-154.83496	395.06070	1042.92773	-81.93897	448.88318	931.62836	-163.85873	543.66559	867.74829	-120.94930	486.75412	842.06329	-160.33572	584.82886	796.53955	-141.96140
5413	21.64800	431.65265	1417.77625	130.49602	515.56970	1351.28088	291.25381	460.23148	1370.33813	-71.52885	571.99048	1305.34741	93.00734	542.23376	1139.24780	323.35211	578.19604	1043.72791	327.96915	516.48798	1020.57898	244.99129	575.40674	907.22223	305.02716	665.39276	841.84485	318.18588	639.89948	827.19543	247.02380	658.94940	759.43628	336.86639	447.80701	1158.11865	-137.04831	456.54312	1077.88928	-154.74413	395.03055	1042.96545	-81.84615	449.02887	931.63196	-163.72331	543.88159	867.88562	-120.75941	486.98026	842.10968	-160.13460	585.12506	796.71259	-141.71623
5414	21.65200	431.70822	1417.76416	130.52133	515.66357	1351.26758	291.24930	460.22186	1370.32776	-71.52249	572.09247	1305.32874	93.08148	542.35187	1139.13220	323.43802	578.26727	1043.73157	328.01859	516.57281	1020.56683	245.02533	575.49548	907.21918	305.06226	665.50800	841.84875	318.23529	640.01215	827.18311	247.07523	659.08221	759.45105	336.91602	447.77948	1158.10095	-137.01910	456.41745	1077.88708	-154.93903	395.41025	1042.60779	-82.00883	449.16165	931.63300	-163.59341	544.08276	868.01398	-120.57179	487.19659	842.16394	-159.94077	585.40222	796.88885	-141.47466
5415	21.65600	431.76993	1417.75232	130.54515	515.76141	1351.25537	291.24564	460.21182	1370.31531	-71.50998	572.11914	1305.30908	93.03962	542.49622	1138.98975	323.54291	578.33514	1043.72791	328.06610	516.63928	1020.56525	245.08591	575.58472	907.21869	305.10349	665.62421	841.84991	318.28986	640.12769	827.16907	247.11815	659.20886	759.46344	336.97208	447.75992	1158.07373	-136.98529	456.15082	1077.87512	-155.44778	396.24844	1041.79089	-82.45181	449.28613	931.63147	-163.46211	544.27161	868.13519	-120.38539	487.41077	842.20123	-159.72952	585.65973	797.05176	-141.23947
5416	21.66000	431.83136	1417.73389	130.57478	515.85876	1351.24060	291.24551	460.20203	1370.30408	-71.49872	572.11469	1305.27148	92.95750	542.44672	1139.13843	323.47794	578.41022	1043.72412	328.10590	516.70715	1020.56000	245.13026	575.67468	907.22211	305.15250	665.73456	841.86182	318.34686	639.79791	827.11230	247.57364	659.31049	759.48535	337.04865	447.73569	1158.04590	-136.95306	456.08182	1077.85522	-155.53606	396.45215	1041.58411	-82.50861	449.40585	931.62665	-163.33336	544.44720	868.25836	-120.19813	487.62451	842.22729	-159.53088	585.90320	797.19928	-141.00769
5417	21.66400	431.89499	1417.71680	130.59172	515.94757	1351.23267	291.24063	460.19547	1370.28760	-71.49304	572.20520	1305.23438	93.03169	542.45746	1139.16321	323.49133	578.48401	1043.73145	328.14883	516.77148	1020.55170	245.17220	575.75995	907.22406	305.20010	665.83887	841.87189	318.40414	638.91998	826.99530	248.53755	659.41492	759.50977	337.12244	447.70801	1158.02051	-136.91592	456.05859	1077.83606	-155.52467	396.50034	1041.52612	-82.47717	449.51358	931.61896	-163.20596	544.61072	868.37415	-120.01931	487.82938	842.25562	-159.34375	586.12823	797.33148	-140.78395
